<?xml version="1.0" encoding="utf-8"?>
<!-- Generator: Adobe Illustrator 27.7.0, SVG Export Plug-In . SVG Version: 6.00 Build 0)  -->
<svg version="1.1" id="Calque_1" xmlns="http://www.w3.org/2000/svg" xmlns:xlink="http://www.w3.org/1999/xlink" x="0px" y="0px"
	 viewBox="0 0 229.04 58.11" style="enable-background:new 0 0 229.04 58.11;" xml:space="preserve">
<style type="text/css">
	.st0{fill:#fff;}
</style>
<g>
	<path class="st0" d="M32.38,57.67c-6.26,0-11.8-1.23-16.61-3.69s-8.6-5.84-11.36-10.15s-4.14-9.26-4.14-14.85
		s1.38-10.54,4.14-14.85s6.55-7.68,11.36-10.1s10.35-3.64,16.61-3.64S44.2,1.6,49.05,4.03c4.85,2.42,8.64,5.79,11.36,10.1
		c2.73,4.31,4.09,9.26,4.09,14.85s-1.36,10.54-4.09,14.85s-6.51,7.69-11.36,10.15C44.2,56.45,38.65,57.67,32.38,57.67z M32.38,39.9
		c1.68,0,3.2-0.4,4.55-1.21s2.42-2.04,3.23-3.69s1.21-3.65,1.21-6.01c0-2.42-0.4-4.43-1.21-6.01c-0.81-1.58-1.89-2.78-3.23-3.59
		c-1.35-0.81-2.86-1.21-4.55-1.21c-1.68,0-3.2,0.4-4.54,1.21c-1.35,0.81-2.42,2-3.23,3.59c-0.81,1.58-1.21,3.59-1.21,6.01
		c0,2.36,0.4,4.36,1.21,6.01c0.81,1.65,1.88,2.88,3.23,3.69C29.19,39.49,30.7,39.9,32.38,39.9z"/>
	<path class="st0" d="M83.69,56.66L64.5,1.41h21.61l14.54,44.84h-10.4L105.5,1.41h19.39l14.54,44.84h-10.1l15.05-44.84h20
		l-19.19,55.25h-22.22l-11.62-35.55h6.67L105.9,56.66H83.69z"/>
	<path class="st0" d="M196.51,57.67c-6.26,0-11.8-1.23-16.62-3.69c-4.81-2.46-8.6-5.84-11.36-10.15c-2.76-4.31-4.14-9.26-4.14-14.85
		s1.38-10.54,4.14-14.85s6.55-7.68,11.36-10.1s10.35-3.64,16.62-3.64s11.82,1.21,16.67,3.64c4.85,2.42,8.63,5.79,11.36,10.1
		c2.73,4.31,4.09,9.26,4.09,14.85s-1.37,10.54-4.09,14.85c-2.73,4.31-6.51,7.69-11.36,10.15C208.32,56.45,202.77,57.67,196.51,57.67
		z M196.51,39.9c1.68,0,3.2-0.4,4.54-1.21c1.35-0.81,2.42-2.04,3.23-3.69s1.21-3.65,1.21-6.01c0-2.42-0.4-4.43-1.21-6.01
		c-0.81-1.58-1.89-2.78-3.23-3.59c-1.35-0.81-2.86-1.21-4.54-1.21c-1.68,0-3.2,0.4-4.54,1.21c-1.35,0.81-2.42,2-3.23,3.59
		c-0.81,1.58-1.21,3.59-1.21,6.01c0,2.36,0.4,4.36,1.21,6.01c0.81,1.65,1.88,2.88,3.23,3.69C193.31,39.49,194.82,39.9,196.51,39.9z"
		/>
</g>
</svg>
